# xmcd
#
# Track frame offsets:
#	182
#	12770
#	29420
#	42772
#	60620
#	75977
#	92560
#	105430
#	122980
#	136910
#	150047
#
# Disc length: 2360 seconds
#
# Revision: 0
# Processed by: cddbd v1.5PL3 Copyright (c) Steve Scherf et al.
# Submitted via: dBpowerAMP V4.0
#
DISCID=7209360b
DTITLE=Rick Burness - Dancing On Glass
DYEAR=1992
DGENRE=Country
TTITLE0=Dancing On Glass
TTITLE1=Greybrother
TTITLE2=Old Leather Bound Book
TTITLE3=Kelly
TTITLE4=Summer Rain
TTITLE5=Am I Right
TTITLE6=Velvet And Steel
TTITLE7=Remember Your Name
TTITLE8=My Heart Soars
TTITLE9=Mountain Man
TTITLE10=Silent Trail
EXTD=
EXTT0=
EXTT1=
EXTT2=
EXTT3=
EXTT4=
EXTT5=
EXTT6=
EXTT7=
EXTT8=
EXTT9=
EXTT10=
PLAYORDER=
